HIERARCHY
ROOT root
{
	OFFSET	0	13.1	24.9
	CHANNELS 6  Xposition Yposition Zposition Xrotation Yrotation Zrotation
	JOINT spine_1
	{
		OFFSET	0	9.99999	0
		CHANNELS 3  Xrotation Yrotation Zrotation
		JOINT spine_2
		{
			OFFSET	0	112	-10
			CHANNELS 3  Xrotation Yrotation Zrotation
			JOINT spine_3
			{
				OFFSET	0	206.5	19.3
				CHANNELS 3  Xrotation Yrotation Zrotation
				JOINT spine_4
				{
					OFFSET	0	110.4	14.6
					CHANNELS 3  Xrotation Yrotation Zrotation
					JOINT neck_1
					{
						OFFSET	0	71.8	-50.3
						CHANNELS 3  Xrotation Yrotation Zrotation
						JOINT neck_2
						{
							OFFSET	0	86.2	-25.8
							CHANNELS 3  Xrotation Yrotation Zrotation
							JOINT head_ee
							{
								OFFSET	0	179.8	-8.7
								CHANNELS 3  Xrotation Yrotation Zrotation
								End Site
								{
									OFFSET	1	0	0
								}
							}
						}
					}
					JOINT left_clavicle
					{
						OFFSET	-43.2	22.4	-70.8
						CHANNELS 3  Xrotation Yrotation Zrotation
						JOINT left_shoulder
						{
							OFFSET	-93.9	-5.79999	48.7
							CHANNELS 3  Xrotation Yrotation Zrotation
							JOINT left_elbow
							{
								OFFSET	-291.4	-30.8	15.2
								CHANNELS 3  Xrotation Yrotation Zrotation
								JOINT left_lowarm_twist
								{
									OFFSET	-110.7	-3.89999	13.6
									CHANNELS 3  Xrotation Yrotation Zrotation
									JOINT left_hand
									{
										OFFSET	-110.7	-3.89999	13.6
										CHANNELS 3  Xrotation Yrotation Zrotation
										JOINT left_ee
										{
											OFFSET	-80.8	-5.10001	12.1
											CHANNELS 3  Xrotation Yrotation Zrotation
											End Site
											{
												OFFSET	1	0	0
											}
										}
									}
								}
							}
						}
					}
					JOINT right_clavicle
					{
						OFFSET	43.2	22.4	-70.8
						CHANNELS 3  Xrotation Yrotation Zrotation
						JOINT right_shoulder
						{
							OFFSET	93.9	-5.79999	48.7
							CHANNELS 3  Xrotation Yrotation Zrotation
							JOINT right_elbow
							{
								OFFSET	291.4	-30.8	15.2
								CHANNELS 3  Xrotation Yrotation Zrotation
								JOINT right_lowarm_twist
								{
									OFFSET	110.7	-3.89999	13.6
									CHANNELS 3  Xrotation Yrotation Zrotation
									JOINT right_hand
									{
										OFFSET	110.7	-3.89999	13.6
										CHANNELS 3  Xrotation Yrotation Zrotation
										JOINT right_ee
										{
											OFFSET	80.8	-5.10001	12.1
											CHANNELS 3  Xrotation Yrotation Zrotation
											End Site
											{
												OFFSET	1	0	0
											}
										}
									}
								}
							}
						}
					}
				}
			}
		}
	}
	JOINT left_hip
	{
		OFFSET	-82.8	-127.5	0.300001
		CHANNELS 3  Xrotation Yrotation Zrotation
		JOINT left_knee
		{
			OFFSET	-28.2	-396.7	2.2
			CHANNELS 3  Xrotation Yrotation Zrotation
			JOINT left_ankle
			{
				OFFSET	-11.7	-411.3	35.4
				CHANNELS 3  Xrotation Yrotation Zrotation
				JOINT left_toes
				{
					OFFSET	0	-60	-88.6
					CHANNELS 3  Xrotation Yrotation Zrotation
					JOINT left_foot_ee
					{
						OFFSET	-22.5	-16.5	-42.2
						CHANNELS 3  Xrotation Yrotation Zrotation
						End Site
						{
							OFFSET	1	0	0
						}
					}
				}
			}
		}
	}
	JOINT right_hip
	{
		OFFSET	82.8	-127.5	0.300001
		CHANNELS 3  Xrotation Yrotation Zrotation
		JOINT right_knee
		{
			OFFSET	28.2	-396.7	2.2
			CHANNELS 3  Xrotation Yrotation Zrotation
			JOINT right_ankle
			{
				OFFSET	11.7	-411.3	35.4
				CHANNELS 3  Xrotation Yrotation Zrotation
				JOINT right_toes
				{
					OFFSET	0	-60	-88.6
					CHANNELS 3  Xrotation Yrotation Zrotation
					JOINT right_foot_ee
					{
						OFFSET	22.5	-16.5	-42.2
						CHANNELS 3  Xrotation Yrotation Zrotation
						End Site
						{
							OFFSET	1	0	0
						}
					}
				}
			}
		}
	}
}
MOTION
Frames: 9
Frame Time: 0.02
391.555 721.904 -1204.45 149.985651789 -76.8126958221 143.601322057 -4.6113 0.240765 0.447923 -4.61121 0.211775 0.462335 -4.60924 0.0696221 0.50374 -4.60957 0.148304 0.486423 4.88825 -7.77242 6.84627 5.62346 -19.2825 7.55514 -0.0 0.0 -0.0 12.2521 -26.6708 23.8791 87.6297 64.5302 -5.02667 0.188632 -5.3385 0.00879416 67.5814 -2.49334 -7.76098 -3.1831 -4.09428 -23.8492 -0.0 0.0 -0.0 12.5781 16.169 -25.4821 -31.7111 42.6575 -33.9803 0.747108 20.3093 -0.133817 15.179 -0.282931 1.91268 -1.50655 5.33618 12.5172 0.0 0.0 0.0 5.22809 43.8252 0.333907 -5.62381 0.190357 0.841752 24.1438 -4.06378 -3.28889 -3.96027 0.0 0.0 -0.0 0.0 -0.0 10.9138 -6.10642 14.3306 -29.9581 -0.0456692 -4.54521 -1.55463 -17.9398 -0.231472 33.5361 -0.0 -0.0 0.0 0.0 0.0 
419.880889962 719.617 -1223.29704801 125.596242977 -80.5717583466 119.713353101 -5.06937 0.0578481 0.428666 -5.06927 0.0304539 0.431479 -5.06885 -0.0985125 0.421185 -5.0691 -0.0307585 0.431457 3.91984 1.06679 4.96647 4.0046 -2.44572 5.66909 -0.0 0.0 -0.0 10.6317 -24.7734 20.4093 88.7976 68.4954 -10.9513 0.228111 -6.4472 0.0128476 66.7392 -2.40922 -7.69318 -4.24013 6.55496 -25.849 -0.0 0.0 -0.0 11.7719 15.2439 -23.6685 -31.189 38.8696 -36.1302 1.02212 26.8538 -0.244016 15.6755 -0.283569 1.9761 -1.84793 8.51791 16.3096 0.0 0.0 0.0 0.889753 45.2217 1.97402 -2.6726 0.100778 0.397739 33.5905 -12.6136 -4.48608 -0.472786 0.0 0.0 -0.0 0.0 -0.0 8.83182 -1.96922 14.6569 -34.1247 0.135892 -5.15866 -6.82596 -23.7818 -1.04929 32.1759 -0.0 -0.0 0.0 0.0 0.0 
419.9432094 719.617 -1223.20304849 126.515368 -80.4599687651 120.645214507 -5.06937 0.0578481 0.428666 -5.06927 0.0304539 0.431479 -5.06885 -0.0985125 0.421185 -5.0691 -0.0307585 0.431457 3.91984 1.06679 4.96647 4.0046 -2.44572 5.66909 -0.0 0.0 -0.0 10.6317 -24.7734 20.4093 88.7976 68.4954 -10.9513 0.228111 -6.4472 0.0128476 66.7392 -2.40922 -7.69318 -4.24013 6.55496 -25.849 -0.0 0.0 -0.0 11.7719 15.2439 -23.6685 -31.189 38.8696 -36.1302 1.02212 26.8538 -0.244016 15.6755 -0.283569 1.9761 -1.84793 8.51791 16.3096 0.0 0.0 0.0 0.889753 45.2217 1.97402 -2.6726 0.100778 0.397739 33.5905 -12.6136 -4.48608 -0.472786 0.0 0.0 -0.0 0.0 -0.0 8.83182 -1.96922 14.6569 -34.1247 0.135892 -5.15866 -6.82596 -23.7818 -1.04929 32.1759 -0.0 -0.0 0.0 0.0 0.0 
420.272172299 719.617 -1222.69530833 131.085275174 -79.8210375308 125.283481907 -5.06937 0.0578481 0.428666 -5.06927 0.0304539 0.431479 -5.06885 -0.0985125 0.421185 -5.0691 -0.0307585 0.431457 3.91984 1.06679 4.96647 4.0046 -2.44572 5.66909 -0.0 0.0 -0.0 10.6317 -24.7734 20.4093 88.7976 68.4954 -10.9513 0.228111 -6.4472 0.0128476 66.7392 -2.40922 -7.69318 -4.24013 6.55496 -25.849 -0.0 0.0 -0.0 11.7719 15.2439 -23.6685 -31.189 38.8696 -36.1302 1.02212 26.8538 -0.244016 15.6755 -0.283569 1.9761 -1.84793 8.51791 16.3096 0.0 0.0 0.0 0.889753 45.2217 1.97402 -2.6726 0.100778 0.397739 33.5905 -12.6136 -4.48608 -0.472786 0.0 0.0 -0.0 0.0 -0.0 8.83182 -1.96922 14.6569 -34.1247 0.135892 -5.15866 -6.82596 -23.7818 -1.04929 32.1759 -0.0 -0.0 0.0 0.0 0.0 
420.362569678 719.617 -1222.55224268 132.259746202 -79.631544252 126.477087074 -5.06937 0.0578481 0.428666 -5.06927 0.0304539 0.431479 -5.06885 -0.0985125 0.421185 -5.0691 -0.0307585 0.431457 3.91984 1.06679 4.96647 4.0046 -2.44572 5.66909 -0.0 0.0 -0.0 10.6317 -24.7734 20.4093 88.7976 68.4954 -10.9513 0.228111 -6.4472 0.0128476 66.7392 -2.40922 -7.69318 -4.24013 6.55496 -25.849 -0.0 0.0 -0.0 11.7719 15.2439 -23.6685 -31.189 38.8696 -36.1302 1.02212 26.8538 -0.244016 15.6755 -0.283569 1.9761 -1.84793 8.51791 16.3096 0.0 0.0 0.0 0.889753 45.2217 1.97402 -2.6726 0.100778 0.397739 33.5905 -12.6136 -4.48608 -0.472786 0.0 0.0 -0.0 0.0 -0.0 8.83182 -1.96922 14.6569 -34.1247 0.135892 -5.15866 -6.82596 -23.7818 -1.04929 32.1759 -0.0 -0.0 0.0 0.0 0.0 
420.015837447 719.617 -1223.0926391 127.564900087 -80.3259023745 121.709673575 -5.06937 0.0578481 0.428666 -5.06927 0.0304539 0.431479 -5.06885 -0.0985125 0.421185 -5.0691 -0.0307585 0.431457 3.91984 1.06679 4.96647 4.0046 -2.44572 5.66909 -0.0 0.0 -0.0 10.6317 -24.7734 20.4093 88.7976 68.4954 -10.9513 0.228111 -6.4472 0.0128476 66.7392 -2.40922 -7.69318 -4.24013 6.55496 -25.849 -0.0 0.0 -0.0 11.7719 15.2439 -23.6685 -31.189 38.8696 -36.1302 1.02212 26.8538 -0.244016 15.6755 -0.283569 1.9761 -1.84793 8.51791 16.3096 0.0 0.0 0.0 0.889753 45.2217 1.97402 -2.6726 0.100778 0.397739 33.5905 -12.6136 -4.48608 -0.472786 0.0 0.0 -0.0 0.0 -0.0 8.83182 -1.96922 14.6569 -34.1247 0.135892 -5.15866 -6.82596 -23.7818 -1.04929 32.1759 -0.0 -0.0 0.0 0.0 0.0 
427.218907307 716.414 -1234.22454097 125.941309605 -80.3187147951 120.292815924 -5.32803 -0.0485502 0.136404 -5.32802 -0.0571315 0.133038 -5.32815 -0.0944178 0.109765 -5.32816 -0.0758974 0.123299 4.22262 1.40756 3.90419 4.26812 -0.956208 4.50144 -0.0 0.0 -0.0 10.7911 -25.5712 20.6861 85.6236 71.4422 -7.80557 0.314993 -8.869 0.0244282 69.8043 -2.72009 -7.93396 -4.05662 6.32332 -24.6514 -0.0 0.0 -0.0 11.2253 13.9099 -22.4744 -31.2343 39.8438 -35.3237 0.924334 24.6021 -0.201559 15.3833 -0.28326 1.93878 -2.01898 8.11145 17.3345 0.0 0.0 0.0 -1.66017 47.0891 3.518 -0.589518 0.0238249 0.0873307 35.8608 -22.7089 -5.07853 -0.29617 0.0 0.0 -0.0 0.0 -0.0 9.6091 -4.97464 16.6323 -34.7335 0.166143 -5.24714 -8.34305 -20.7214 -1.2689 31.2867 -0.0 -0.0 0.0 0.0 0.0 
426.651478735 716.414 -1234.891333 120.473001997 -80.9107680766 114.750506 -5.32803 -0.0485502 0.136404 -5.32802 -0.0571315 0.133038 -5.32815 -0.0944178 0.109765 -5.32816 -0.0758974 0.123299 4.22262 1.40756 3.90419 4.26812 -0.956208 4.50144 -0.0 0.0 -0.0 10.7911 -25.5712 20.6861 85.6236 71.4422 -7.80557 0.314993 -8.869 0.0244282 69.8043 -2.72009 -7.93396 -4.05662 6.32332 -24.6514 -0.0 0.0 -0.0 11.2253 13.9099 -22.4744 -31.2343 39.8438 -35.3237 0.924334 24.6021 -0.201559 15.3833 -0.28326 1.93878 -2.01898 8.11145 17.3345 0.0 0.0 0.0 -1.66017 47.0891 3.518 -0.589518 0.0238249 0.0873307 35.8608 -22.7089 -5.07853 -0.29617 0.0 0.0 -0.0 0.0 -0.0 9.6091 -4.97464 16.6323 -34.7335 0.166143 -5.24714 -8.34305 -20.7214 -1.2689 31.2867 -0.0 -0.0 0.0 0.0 0.0 
448.433036343 725.711 -1309.69661435 133.368678938 -86.2176324185 130.509226253 -4.93472 -0.256981 -0.813049 -4.93437 -0.204725 -0.827752 -4.93063 0.0471677 -0.851386 -4.93163 -0.0878798 -0.848151 6.40582 0.705148 7.64778 6.65509 -5.60391 8.94809 -0.0 0.0 -0.0 11.5399 -23.2695 22.6129 79.4456 78.5079 -7.08359 0.31571 -8.88887 0.0245388 69.9204 -2.73211 -7.94275 -4.78788 2.73473 -32.3353 -0.0 0.0 -0.0 10.6408 17.8802 -20.9809 -27.9216 38.2878 -47.3737 0.377553 10.5938 -0.0350038 13.7703 -0.278132 1.73283 0.289315 9.92553 2.26416 0.0 0.0 0.0 -5.80418 56.1226 12.1185 5.52466 -0.2666 -0.805322 36.7027 -32.8769 -5.79391 3.15424 -0.0 -0.0 -0.0 0.0 -0.0 12.9792 -15.518 19.9758 -14.6034 -0.320877 -2.21205 -13.543 -19.6628 -2.0649 29.0019 -0.0 -0.0 0.0 0.0 0.0 
